<?xml version="1.0" standalone="no"?><!DOCTYPE svg PUBLIC "-//W3C//DTD SVG 1.1//EN" "http://www.w3.org/Graphics/SVG/1.1/DTD/svg11.dtd"><svg class="icon" width="200px" height="200.00px" viewBox="0 0 1024 1024" version="1.1" xmlns="http://www.w3.org/2000/svg"><path d="M102.56 221.984l0 136.48 818.88 0 0-136.48-818.88 0zM887.328 324.352l-750.624 0 0-68.256 750.624 0 0 68.256z"  /><path d="M102.56 580.256l818.88 0 0-136.48-818.88 0 0 136.48zM136.672 477.888l750.624 0 0 68.256-750.624 0 0-68.256z"  /><path d="M102.56 802.016l818.88 0 0-136.48-818.88 0 0 136.48zM136.672 699.648l750.624 0 0 68.256-750.624 0 0-68.256z"  /></svg>